<?xml version="1.0" encoding="UTF-8" standalone="no"?>
<!DOCTYPE svg PUBLIC "-//W3C//DTD SVG 1.1//EN" "http://www.w3.org/Graphics/SVG/1.1/DTD/svg11.dtd">
<svg width="100%" height="100%" viewBox="0 0 3000 3000" version="1.1" xmlns="http://www.w3.org/2000/svg" xmlns:xlink="http://www.w3.org/1999/xlink" xml:space="preserve" xmlns:serif="http://www.serif.com/" style="fill-rule:evenodd;clip-rule:evenodd;stroke-linejoin:round;stroke-miterlimit:2;">
    <g transform="matrix(1,0,0,1,-13535,0)">
        <g id="Logo-Final-Final" transform="matrix(0.874447,0,0,0.880727,1698.73,185.078)">
            <rect x="13535.7" y="-210.142" width="3430.74" height="3406.28" style="fill:none;"/>
            <g transform="matrix(1.29945,0,0,1.29018,13134.8,-404.026)">
                <circle cx="1696.36" cy="1471.27" r="1226.02" style="fill:white;"/>
            </g>
            <g transform="matrix(1.15587,0,0,1.14762,-2239.83,-269.738)">
                <path d="M14063.1,2308.15C13915.9,2087.33 13830.1,1822.12 13830.1,1537.02C13830.1,768.134 14454.4,143.897 15223.2,143.897C15992.1,143.897 16616.4,768.134 16616.4,1537.02C16616.4,2305.9 15992.1,2930.14 15223.2,2930.14C15199.9,2930.14 15176.8,2929.57 15153.8,2928.43C15286.2,2913.41 15389.2,2800.9 15389.2,2664.52C15389.2,2517.92 15270.2,2398.9 15123.6,2398.9L14594.4,2398.9L14594.4,2169.18L14793.7,2169.18C14940.3,2169.18 15059.3,2050.16 15059.3,1903.56C15059.3,1756.96 14940.3,1637.94 14793.7,1637.94L14594.4,1637.94L14594.4,1408.22L15123.6,1408.22C15270.2,1408.22 15389.2,1289.2 15389.2,1142.6C15389.2,996.005 15270.2,876.985 15123.6,876.985L14328.7,876.985C14228.3,876.985 14140.9,932.799 14095.7,1015.08L14095.6,1015.38C14074.9,1053.18 14063.1,1096.53 14063.1,1142.6L14063.1,2308.15Z" style="fill:rgb(41,85,146);"/>
            </g>
            <g transform="matrix(0.171464,0,0,0.170241,13455.1,893.803)">
                <circle cx="1696.36" cy="1471.27" r="1226.02" style="fill:rgb(253,24,63);"/>
            </g>
            <g transform="matrix(0.405223,0,0,0.402334,15782.2,2110.92)">
                <circle cx="1696.36" cy="1471.27" r="1226.02" style="fill:rgb(85,202,121);"/>
            </g>
            <g transform="matrix(0.282358,0,0,0.280345,15644.5,-278.898)">
                <circle cx="1696.36" cy="1471.27" r="1226.02" style="fill:rgb(253,178,24);"/>
            </g>
        </g>
    </g>
</svg>
